<svg width="87" height="18" viewBox="0 0 87 18" fill="none" xmlns="http://www.w3.org/2000/svg">
<path d="M0.255547 17V1.6H5.34855C6.41188 1.6 7.40921 1.80167 8.34055 2.205C9.27188 2.601 10.0895 3.15467 10.7935 3.866C11.4975 4.57 12.0475 5.38767 12.4435 6.319C12.8469 7.243 13.0485 8.23667 13.0485 9.3C13.0485 10.3633 12.8469 11.3607 12.4435 12.292C12.0475 13.216 11.4975 14.0337 10.7935 14.745C10.0895 15.449 9.27188 16.0027 8.34055 16.406C7.40921 16.802 6.41188 17 5.34855 17H0.255547ZM2.10355 15.152H5.34855C6.15521 15.152 6.91055 15.0017 7.61455 14.701C8.32588 14.4003 8.94921 13.9823 9.48455 13.447C10.0199 12.9043 10.4379 12.281 10.7385 11.577C11.0465 10.8657 11.2005 10.1067 11.2005 9.3C11.2005 8.49333 11.0465 7.738 10.7385 7.034C10.4379 6.32267 10.0162 5.69933 9.47355 5.164C8.93821 4.62867 8.31855 4.21067 7.61455 3.91C6.91055 3.602 6.15521 3.448 5.34855 3.448H2.10355V15.152ZM19.6834 17.286C18.6714 17.286 17.7474 17.0257 16.9114 16.505C16.0828 15.9843 15.4191 15.2877 14.9204 14.415C14.4291 13.535 14.1834 12.5633 14.1834 11.5C14.1834 10.4293 14.4291 9.454 14.9204 8.574C15.4191 7.694 16.0828 6.99367 16.9114 6.473C17.7474 5.95233 18.6714 5.692 19.6834 5.692C20.7834 5.692 21.7588 5.98167 22.6094 6.561C23.4674 7.14033 24.1238 7.92133 24.5784 8.904C25.0331 9.88667 25.2164 10.9757 25.1284 12.171H16.1524C16.2844 13.1023 16.6731 13.8797 17.3184 14.503C17.9711 15.119 18.7594 15.4307 19.6834 15.438C20.3434 15.438 20.9411 15.2693 21.4764 14.932C22.0118 14.5947 22.4444 14.1253 22.7744 13.524L24.6554 13.964C24.2154 14.9393 23.5518 15.7387 22.6644 16.362C21.7771 16.978 20.7834 17.286 19.6834 17.286ZM16.0974 10.719H23.2694C23.2034 10.103 23.0018 9.542 22.6644 9.036C22.3344 8.52267 21.9091 8.112 21.3884 7.804C20.8678 7.496 20.2994 7.342 19.6834 7.342C19.0601 7.342 18.4918 7.49233 17.9784 7.793C17.4724 8.09367 17.0508 8.50067 16.7134 9.014C16.3834 9.52 16.1781 10.0883 16.0974 10.719ZM30.3801 17.209C29.7861 17.187 29.2067 17.077 28.6421 16.879C28.0847 16.6737 27.5934 16.3987 27.1681 16.054C26.7501 15.702 26.4457 15.2987 26.2551 14.844L27.8391 14.162C28.0004 14.5433 28.3487 14.877 28.8841 15.163C29.4267 15.449 29.9841 15.592 30.5561 15.592C31.1574 15.592 31.6964 15.4527 32.1731 15.174C32.6497 14.888 32.8881 14.4847 32.8881 13.964C32.8881 13.5973 32.7634 13.3113 32.5141 13.106C32.2721 12.8933 31.9641 12.7283 31.5901 12.611C31.2234 12.4863 30.8494 12.369 30.4681 12.259C29.7127 12.0683 29.0381 11.841 28.4441 11.577C27.8501 11.3057 27.3807 10.9647 27.0361 10.554C26.6987 10.136 26.5301 9.60433 26.5301 8.959C26.5301 8.277 26.7171 7.68667 27.0911 7.188C27.4724 6.68933 27.9674 6.30433 28.5761 6.033C29.1921 5.76167 29.8557 5.626 30.5671 5.626C31.4544 5.626 32.2647 5.81667 32.9981 6.198C33.7314 6.57933 34.2777 7.09633 34.6371 7.749L33.1521 8.618C32.9687 8.222 32.6387 7.89933 32.1621 7.65C31.6927 7.40067 31.2051 7.26867 30.6991 7.254C30.0391 7.23933 29.4671 7.375 28.9831 7.661C28.5064 7.93967 28.2681 8.36133 28.2681 8.926C28.2681 9.29267 28.3854 9.57133 28.6201 9.762C28.8547 9.95267 29.1664 10.1067 29.5551 10.224C29.9437 10.334 30.3654 10.4623 30.8201 10.609C31.4874 10.8217 32.1107 11.0673 32.6901 11.346C33.2694 11.6247 33.7351 11.973 34.0871 12.391C34.4464 12.809 34.6224 13.326 34.6151 13.942C34.6151 14.6167 34.4134 15.207 34.0101 15.713C33.6067 16.2117 33.0824 16.593 32.4371 16.857C31.7917 17.121 31.1061 17.2383 30.3801 17.209ZM45.4207 17H43.2977L40.3717 11.951L38.3477 14.371V17H36.4997V0.499999H38.3477V11.489L42.9567 6H45.3657L41.6257 10.455L45.4207 17ZM47.5641 17V1.6H50.2481V14.316H56.6611V17H47.5641ZM59.0798 6H61.7638V17H59.0798V6ZM60.4328 4.581C60.0368 4.581 59.7031 4.45267 59.4318 4.196C59.1678 3.932 59.0358 3.602 59.0358 3.206C59.0358 2.81733 59.1678 2.491 59.4318 2.227C59.7031 1.963 60.0368 1.831 60.4328 1.831C60.8214 1.831 61.1478 1.963 61.4118 2.227C61.6831 2.491 61.8188 2.81733 61.8188 3.206C61.8188 3.602 61.6868 3.932 61.4228 4.196C61.1588 4.45267 60.8288 4.581 60.4328 4.581ZM70.8731 17H67.4081L63.4041 5.989H66.2641L69.1461 13.909L72.0171 5.989H74.8771L70.8731 17ZM80.9139 17.286C79.9019 17.286 78.9779 17.0257 78.1419 16.505C77.3132 15.9843 76.6496 15.2877 76.1509 14.415C75.6596 13.535 75.4139 12.5597 75.4139 11.489C75.4139 10.4257 75.6596 9.454 76.1509 8.574C76.6496 7.694 77.3132 6.99367 78.1419 6.473C78.9779 5.95233 79.9019 5.692 80.9139 5.692C81.7719 5.692 82.5566 5.87533 83.2679 6.242C83.9792 6.60133 84.5842 7.09633 85.0829 7.727C85.5889 8.35033 85.9519 9.06533 86.1719 9.872C86.3992 10.6787 86.4542 11.5257 86.3369 12.413H78.2959C78.4426 13.029 78.7432 13.546 79.1979 13.964C79.6526 14.382 80.2246 14.5947 80.9139 14.602C81.3759 14.602 81.8012 14.4883 82.1899 14.261C82.5786 14.0337 82.9012 13.722 83.1579 13.326L85.8969 13.964C85.4496 14.9393 84.7822 15.7387 83.8949 16.362C83.0076 16.978 82.0139 17.286 80.9139 17.286ZM78.2079 10.4H83.6199C83.4879 9.74 83.1689 9.18267 82.6629 8.728C82.1642 8.266 81.5812 8.035 80.9139 8.035C80.2466 8.035 79.6636 8.26233 79.1649 8.717C78.6736 9.17167 78.3546 9.73267 78.2079 10.4Z" fill="black"/>
</svg>
