<svg width="16" height="20" viewBox="0 0 16 20" fill="none" xmlns="http://www.w3.org/2000/svg">
<path d="M0.800049 3.5998L2.40005 1.5998C5.46672 1.33314 11.68 0.799805 12 0.799805C12.32 0.799805 14 1.86647 14.8 2.3998V16.3998L14 18.3998L7.60005 16.3998L0.800049 18.7998V11.5998V3.5998Z" fill="#FECC07"/>
<path d="M4 0C1.448 0 0 1.4464 0 3.9965V18.9833C0 19.7006 0.715 20.2025 1.375 19.92L8 17.0787L14.594 19.92C15.254 20.2025 16 19.7006 16 18.9833V3.9965C16 1.3754 14.695 0 12 0H4ZM4 1.9982H12C13.566 1.9982 14 2.4557 14 3.9965V17.4846L8.375 15.0805C8.123 14.9728 7.84499 14.9728 7.59399 15.0805L2 17.4846V3.9965C2 2.55 2.552 1.9982 4 1.9982Z" fill="#FECC07"/>
</svg>
