<svg width="23" height="22" viewBox="0 0 23 22" fill="none" xmlns="http://www.w3.org/2000/svg">
<path d="M11.5 0C5.14855 0 0 4.9247 0 11C0 12.3992 0.301293 13.8171 0.826843 15.0909L1.725 16.8432C2.29425 17.9751 2.09416 19.0421 1.32941 20.35C0.907357 21.0738 1.43405 21.9461 2.3 21.9659C3.46955 21.9912 5.41305 21.6348 6.9 21.1068C8.2731 21.7129 9.9682 22 11.5 22C17.8514 22 23 17.0753 23 11C23 4.9247 17.8514 0 11.5 0ZM11.5 2.2C16.5807 2.2 20.7 6.1402 20.7 11C20.7 15.8598 16.5807 19.8 11.5 19.8C10.1775 19.8 8.51575 19.4744 7.475 18.9409C7.1668 18.7825 6.7896 18.7407 6.46875 18.8716C5.73505 19.1719 4.99444 19.3974 4.13309 19.5591C4.47809 18.403 4.37576 17.0797 3.77316 15.8818L2.91066 14.1966C2.52771 13.2594 2.3 12.122 2.3 11C2.3 6.1402 6.4193 2.2 11.5 2.2ZM6.9 9.9C6.2652 9.9 5.75 10.3928 5.75 11C5.75 11.6072 6.2652 12.1 6.9 12.1C7.5348 12.1 8.05 11.6072 8.05 11C8.05 10.3928 7.5348 9.9 6.9 9.9ZM11.5 9.9C10.8652 9.9 10.35 10.3928 10.35 11C10.35 11.6072 10.8652 12.1 11.5 12.1C12.1348 12.1 12.65 11.6072 12.65 11C12.65 10.3928 12.1348 9.9 11.5 9.9ZM16.1 9.9C15.4652 9.9 14.95 10.3928 14.95 11C14.95 11.6072 15.4652 12.1 16.1 12.1C16.7348 12.1 17.25 11.6072 17.25 11C17.25 10.3928 16.7348 9.9 16.1 9.9Z" fill="#2A343D"/>
</svg>
