<svg width="20" height="25" viewBox="0 0 20 25" fill="none" xmlns="http://www.w3.org/2000/svg">
<path d="M16.25 0C14.1787 0 12.5 1.67875 12.5 3.75C12.5 4.07125 12.5512 4.47125 12.6275 4.76875L5.93624 9.43874C5.33749 9.03374 4.52625 8.75 3.75 8.75C1.67875 8.75 0 10.4288 0 12.5C0 14.5712 1.67875 16.25 3.75 16.25C4.54 16.25 5.31999 15.9563 5.92499 15.54L12.63 20.2475C12.5475 20.5562 12.5 20.915 12.5 21.25C12.5 23.3213 14.1787 25 16.25 25C18.3212 25 20 23.3213 20 21.25C20 19.1788 18.3212 17.5 16.25 17.5C15.46 17.5 14.69 17.785 14.0863 18.2025L7.36374 13.4988C7.44499 13.19 7.5 12.835 7.5 12.5C7.5 12.165 7.4525 11.8038 7.37 11.495L14.0762 6.805C14.675 7.20875 15.4737 7.5 16.25 7.5C18.3212 7.5 20 5.82125 20 3.75C20 1.67875 18.3212 0 16.25 0ZM16.25 2.5C16.94 2.5 17.5 3.06 17.5 3.75C17.5 4.44 16.94 5 16.25 5C15.56 5 15 4.44 15 3.75C15 3.06 15.56 2.5 16.25 2.5ZM3.75 11.25C4.44 11.25 5 11.81 5 12.5C5 13.19 4.44 13.75 3.75 13.75C3.06 13.75 2.5 13.19 2.5 12.5C2.5 11.81 3.06 11.25 3.75 11.25ZM16.25 20C16.94 20 17.5 20.56 17.5 21.25C17.5 21.94 16.94 22.5 16.25 22.5C15.56 22.5 15 21.94 15 21.25C15 20.56 15.56 20 16.25 20Z" fill="#2A343D"/>
</svg>
